<svg xmlns="http://www.w3.org/2000/svg"  viewBox="0 0 48 48" width="48px" height="48px" baseProfile="basic"><path fill="#1b5e20" d="M9,17.139c0-2.624,2.126-4.75,4.749-4.75H41v27.444C41,41.582,39.583,43,37.834,43H15.332	C11.835,43,9,40.164,9,36.667C9,36.667,9,17.139,9,17.139z"/><path fill="#43a047" d="M9,22.75C9,20.126,11.126,18,13.749,18h14.418c-1.749,0-3.166,1.418-3.166,3.167v6	c0,1.749-1.417,3.167-3.166,3.167h-6.502c-3.497,0-6.332,2.836-6.332,6.333L9,22.75L9,22.75z"/><path fill="#9ccc65" d="M9,11.333C9,7.836,11.835,5,15.332,5h12.941v13H15.332C11.835,18,9,20.836,9,24.333	C9,24.333,9,11.333,9,11.333z"/><path fill="#ccff90" d="M28.166,5h9.668C39.582,5,41,6.418,41,8.166v6.668C41,16.582,39.582,18,37.834,18h-9.668	C26.417,18,25,16.582,25,14.834V8.166C25,6.418,26.417,5,28.166,5z"/><path fill="#2e7d32" d="M7.5,23h10c1.933,0,3.5,1.567,3.5,3.5v10c0,1.933-1.567,3.5-3.5,3.5h-10C5.567,40,4,38.433,4,36.5	v-10C4,24.567,5.567,23,7.5,23z"/><path fill="#fff" d="M16.965,36.357h-2.62L12.7,33.261c-0.059-0.109-0.104-0.194-0.135-0.258	c-0.027-0.067-0.057-0.145-0.088-0.23H12.45c-0.041,0.109-0.079,0.197-0.115,0.264c-0.036,0.068-0.079,0.151-0.129,0.251	l-1.706,3.068H8.03l2.965-4.864l-2.762-4.85h2.586l1.462,2.764c0.059,0.113,0.109,0.213,0.149,0.298	c0.045,0.081,0.09,0.178,0.135,0.291h0.027c0.063-0.131,0.112-0.235,0.149-0.311c0.041-0.076,0.095-0.178,0.162-0.304l1.516-2.736	h2.464l-2.802,4.776L16.965,36.357L16.965,36.357z"/></svg>